<?xml version="1.0" encoding="utf-8"?>
<!-- Generator: Adobe Illustrator 21.1.0, SVG Export Plug-In . SVG Version: 6.00 Build 0)  -->
<svg version="1.2" baseProfile="tiny" id="Calque_1"
	 xmlns="http://www.w3.org/2000/svg" xmlns:xlink="http://www.w3.org/1999/xlink" x="0px" y="0px" viewBox="0 0 527.6 126.5"
	 xml:space="preserve">
<g>
	<g>
		<path fill="#007EE5" d="M91.9,73.3V35c0-8.2-3.4-12.4-8.9-12.4c-4.7,0-7.1,3-8,6.2c1-0.9,2.3-1.4,4-1.4c3.7,0,6.1,2.6,6.1,7.7
			v38.3c0,1.8,1.1,2.6,3.4,2.6C90.8,75.9,91.9,75.1,91.9,73.3z"/>
		<path fill="#007EE5" d="M64.7,73.3V35c0-8.2-3.4-12.4-8.9-12.4c-4.7,0-7.1,3-8,6.2c1-0.9,2.3-1.4,4-1.4c3.7,0,6.1,2.6,6.1,7.7
			v38.3c0,1.8,1.1,2.6,3.4,2.6C63.7,75.9,64.7,75.1,64.7,73.3z"/>
		<path fill="#007EE5" d="M37.6,73.3V35c0-10.8,4-17.5,10.7-20.2C37.9,16,30.7,23.3,30.7,35v38.3c0,1.8,1.1,2.6,3.4,2.6
			S37.6,75.1,37.6,73.3z"/>
		<path fill="#007EE5" d="M118.7,73.3V19.7c0-1.7,1.2-3.4,4.4-3.4c0.7,0,1.4,0.1,2,0.4c-1.4-1.1-3.4-1.7-5.8-1.7
			c-5.6,0-7.5,2.7-7.5,6v52.3c0,1.8,1.1,2.6,3.4,2.6C117.7,75.9,118.7,75.1,118.7,73.3z"/>
		<path fill="#007EE5" d="M172.4,71.1h-23.6c-2.2,0-3.1-0.8-3.1-3.1V19.7c0-1.7,1.2-3.4,4.4-3.4c0.7,0,1.4,0.1,2,0.4
			c-1.4-1.1-3.4-1.7-5.8-1.7c-5.6,0-7.5,2.7-7.5,6v47.4c0,6.6,3.5,9.4,8.7,9.4h24.9c1.6,0,2.7-1,2.7-3.3
			C175.1,72.1,173.9,71.1,172.4,71.1z"/>
		<path fill="#007EE5" d="M219.6,73.3v-2.6c0-9.2-2.9-16.1-8-20.7l-5.5,3.4c4.5,4.4,6.6,10.1,6.6,17.4v2.6c0,1.8,1.1,2.6,3.4,2.6
			S219.6,75.1,219.6,73.3z"/>
		<path fill="#007EE5" d="M191.3,73.3V53.9c0-1.6,0.5-2.1,1.7-2.7l12.9-7.8c8.6-5.2,12-12,12-20.3v-3.4c0-1.7,1.2-3.4,4.4-3.4
			c0.7,0,1.4,0.1,2,0.4c-1.4-1.1-3.4-1.7-5.8-1.7c-5.6,0-7.5,2.7-7.5,6v1.7c0,6.9-2.3,12.2-9.5,16.3l-8.7,4.9
			c-0.6,0.4-1.1,0.8-1.4,1.2V19.7c0-1.7,1.2-3.4,4.4-3.4c0.7,0,1.4,0.1,2,0.4c-1.4-1.1-3.4-1.7-5.8-1.7c-5.6,0-7.5,2.7-7.5,6v52.3
			c0,1.8,1.1,2.6,3.4,2.6S191.3,75.1,191.3,73.3z"/>
		<path fill="#007EE5" d="M259,73.3V58.9c9.9-1.4,15.3-9.2,15.3-19.8V19.7c0-1.7,1.2-3.4,4.4-3.4c0.7,0,1.4,0.1,2,0.4
			c-1.4-1.1-3.4-1.7-5.8-1.7c-5.6,0-7.5,2.7-7.5,6v17.3c0,10.8-5.7,14.2-11.8,14.2c-6.1,0-11.8-3.4-11.8-14.2V19.7
			c0-1.7,1.2-3.4,4.4-3.4c0.7,0,1.4,0.1,2,0.4c-1.4-1.1-3.4-1.7-5.8-1.7c-5.6,0-7.5,2.7-7.5,6v18.1c0,10.7,5.4,18.4,15.3,19.8v14.4
			c0,1.8,1.1,2.6,3.4,2.6C257.9,75.9,259,75.1,259,73.3z"/>
		<path fill="#007EE5" d="M349.7,61.9c0-6.3-1.9-11.4-8.7-13.9c5.1-2.6,7.4-6.8,7.4-12.4c0-7.4-4.9-11.9-11.8-11.9H332
			c-1.2,0-1.8,0.5-1.8,1.8v3h4.8c4.2,0,6.7,1.9,6.7,8c0,5.4-3.7,8.9-9.5,8.9h-11.4V25c0-4.9,1.9-8.1,4.8-9.3
			c-2.9,0.4-6.6,1.6-8.6,3.3c-2.1,1.8-3,3.9-3,6.9v42.5c0,6.6,3.5,9.4,8.7,9.4h8.5C343.8,77.8,349.7,69.9,349.7,61.9z M331.7,71.1
			H324c-2.2,0-3.1-0.8-3.1-3.1V52h13.5c5.6,0,8.7,3.5,8.7,9.1C343.1,67.5,338.9,71.1,331.7,71.1z"/>
		<path fill="#007EE5" d="M400.4,71.1h-23.6c-2.2,0-3.1-0.8-3.1-3.1V19.7c0-1.7,1.2-3.4,4.4-3.4c0.7,0,1.4,0.1,2,0.4
			c-1.4-1.1-3.4-1.7-5.8-1.7c-5.6,0-7.5,2.7-7.5,6v47.4c0,6.6,3.5,9.4,8.7,9.4h24.9c1.6,0,2.7-1,2.7-3.3
			C403.1,72.1,402,71.1,400.4,71.1z"/>
		<path fill="#007EE5" d="M447.7,58.7V19.7c0-1.7,1.2-3.4,4.4-3.4c0.7,0,1.4,0.1,2,0.4c-1.4-1.1-3.4-1.7-5.8-1.7
			c-5.6,0-7.5,2.7-7.5,6v37c0,10.8-5.3,14.2-11.4,14.2c-6.1,0-11.4-3.4-11.4-14.2V19.7c0-1.7,1.2-3.4,4.4-3.4c0.7,0,1.4,0.1,2,0.4
			c-1.4-1.1-3.4-1.7-5.8-1.7c-5.6,0-7.5,2.7-7.5,6v37.7c0,11.8,6.2,20.1,18.3,20.1C441.5,78.8,447.7,70.6,447.7,58.7z"/>
		<path fill="#007EE5" d="M499.6,23.6h-14.4c-1.2,0-1.8,0.5-1.8,1.8v3h15.7c3.4,0,5.6-1.5,5.6-6.3c0-2.6-0.6-4.1-1.8-5.1
			c0.3,0.6,0.4,1.4,0.4,2.3C503.4,22.2,501.8,23.6,499.6,23.6z"/>
		<path fill="#007EE5" d="M499.9,71.1h-22.7c-2.2,0-3.1-0.8-3.1-3.1V52h23.2c1.6,0,2.7-1,2.7-3.3s-1.1-3.4-2.7-3.4h-23.2V25
			c0-4.9,1.9-8.1,4.8-9.3c-2.9,0.4-6.6,1.6-8.6,3.3c-2.1,1.8-3,3.9-3,6.9v42.5c0,6.6,3.5,9.4,8.7,9.4h24c1.6,0,2.7-1,2.7-3.3
			C502.7,72.1,501.5,71.1,499.9,71.1z"/>
	</g>
	<g>
		<path fill="#0062D8" d="M83.1,14.6c-5.2,0-10.8,2.7-13.7,7.8c-2.8-5.1-8.5-7.8-13.7-7.8c-10.9,0-16.9,7.6-16.9,20.2v39
			c0,1.7-1.2,3.3-4.4,3.3c-0.7,0-1.4-0.1-2-0.4c1.4,1.1,3.4,1.7,5.8,1.7c5.6,0,7.5-2.7,7.5-6V35c0-9,3.5-13.7,10.1-13.7
			C62.4,21.3,66,26,66,35v38.8c0,1.7-1.2,3.3-4.4,3.3c-0.7,0-1.4-0.1-2-0.4c1.4,1.1,3.4,1.7,5.8,1.7c5.6,0,7.5-2.7,7.5-6V35
			c0-9,3.5-13.7,10.1-13.7c6.6,0,10.1,4.7,10.1,13.7v38.8c0,1.7-1.2,3.3-4.4,3.3c-0.7,0-1.4-0.1-2-0.4c1.4,1.1,3.4,1.7,5.8,1.7
			c5.6,0,7.5-2.7,7.5-6V34.8C100,22.2,94,14.6,83.1,14.6z"/>
		<path fill="#0062D8" d="M123.4,17.6c-2.4,0-3.4,0.9-3.4,2.6v53.6c0,1.7-1.2,3.3-4.4,3.3c-0.7,0-1.4-0.1-2-0.4
			c1.4,1.1,3.4,1.7,5.8,1.7c5.6,0,7.5-2.7,7.5-6V20.2C126.9,18.4,125.8,17.6,123.4,17.6z"/>
		<path fill="#0062D8" d="M172,65.1h-18.3V20.2c0-1.8-1.1-2.6-3.4-2.6c-2.4,0-3.4,0.9-3.4,2.6v47.9c0,1.2,0.5,1.8,1.8,1.8h23.8
			c2.2,0,3.9,1.4,3.9,4.4c0,0.9-0.2,1.7-0.4,2.3c1.1-1,1.8-2.6,1.8-5.1C177.6,66.6,175.4,65.1,172,65.1z"/>
		<path fill="#0062D8" d="M226,22.5v-2.3c0-1.8-1.1-2.6-3.4-2.6c-2.4,0-3.4,0.9-3.4,2.6v3c0,9-3.6,15.7-12.6,21.2l-13,7.9
			c-0.8,0.5-1,0.9-1,1.9v19.7c0,1.7-1.2,3.3-4.4,3.3c-0.7,0-1.4-0.1-2-0.4c1.4,1.1,3.4,1.7,5.8,1.7c5.6,0,7.5-2.7,7.5-6V57.1
			c0.1-0.6,0.6-1.3,1.7-1.9l10.8-6.9c6.2,6.1,8.9,12.7,8.9,22.4v3.2c0,1.7-1.2,3.3-4.4,3.3c-0.7,0-1.4-0.1-2-0.4
			c1.4,1.1,3.4,1.7,5.8,1.7c5.6,0,7.5-2.7,7.5-6v-2c0-11.5-3.8-19.8-10.8-26.2C223.4,38.3,226,31,226,22.5z"/>
		<path fill="#0062D8" d="M192.5,20.2v22.6l6.9-3.9V20.2c0-1.8-1.1-2.6-3.4-2.6C193.6,17.6,192.5,18.4,192.5,20.2z"/>
		<path fill="#0062D8" d="M245,20.2v18.2c0,8.7,4.6,12.9,10.6,12.9c5.1,0,8.6-2.8,9.7-6.9c-1.3,1.3-3.8,2.2-6.1,2.2
			c-4.6,0-7.3-2.9-7.3-8.3V20.2c0-1.8-1.1-2.6-3.4-2.6C246,17.6,245,18.4,245,20.2z"/>
		<path fill="#0062D8" d="M278.9,17.6c-2.4,0-3.4,0.9-3.4,2.6v19.1c0,10.6-5.3,18.4-15.3,20.4v14.1c0,1.7-1.2,3.3-4.4,3.3
			c-0.7,0-1.4-0.1-2-0.4c1.4,1.1,3.4,1.7,5.8,1.7c5.6,0,7.5-2.7,7.5-6V58.3c8.8-2.3,15.3-9.4,15.3-19.2V20.2
			C282.4,18.4,281.3,17.6,278.9,17.6z"/>
		<path fill="#0062D8" d="M349.2,45.4c4.6-2.8,7.1-7.3,7.1-13c0-9.3-7-16.8-18.2-16.8h-7.2c-5.2,0-8.7,2.8-8.7,9.4v19h10.3
			c4.6,0,7.6-2.6,8.2-6.5c-1.1,1.3-2.4,1.8-4.3,1.8H329V25.5c0-2.3,0.9-3.1,3.1-3.1h4.3c7.4,0,13.2,4.6,13.2,13.1
			c0,5.7-2.2,9.6-6.4,12.3c5.6,2.8,7.7,7.6,7.7,14.1c0,8.3-5.3,13.8-11.8,15.9c10.8,0,18.4-7.8,18.4-17.9
			C357.6,53,354.4,48.1,349.2,45.4z"/>
		<path fill="#0062D8" d="M329,65.1V53.3h-6.9v14.8c0,1.2,0.5,1.8,1.8,1.8h8.1c4.8,0,8.4-2,9.8-6.1c-1.1,0.9-2.6,1.3-4,1.3H329z"/>
		<path fill="#0062D8" d="M400,65.1h-18.3V20.2c0-1.8-1.1-2.6-3.4-2.6c-2.4,0-3.4,0.9-3.4,2.6v47.9c0,1.2,0.5,1.8,1.8,1.8h23.8
			c2.2,0,3.9,1.4,3.9,4.4c0,0.9-0.2,1.7-0.4,2.3c1.1-1,1.8-2.6,1.8-5.1C405.7,66.6,403.5,65.1,400,65.1z"/>
		<path fill="#0062D8" d="M419.3,20.2V58c0,8.7,4.1,12.9,10.1,12.9c5.1,0,8.1-2.8,9.3-6.9c-1.3,1.3-3.3,2.2-5.6,2.2
			c-4.6,0-6.9-2.9-6.9-8.3V20.2c0-1.8-1.1-2.6-3.4-2.6S419.3,18.4,419.3,20.2z"/>
		<path fill="#0062D8" d="M452.3,17.6c-2.4,0-3.4,0.9-3.4,2.6V59c0,11.2-5.5,17.5-11.6,19.7c10.9-1.9,18.4-9.1,18.4-19.9V20.2
			C455.8,18.4,454.7,17.6,452.3,17.6z"/>
		<path fill="#0062D8" d="M505.2,71.4c0-4.8-2.2-6.4-5.6-6.4h-17.4V53.3h-6.9v14.8c0,1.2,0.5,1.8,1.8,1.8H500c2.2,0,3.9,1.4,3.9,4.4
			c0,0.9-0.2,1.7-0.4,2.3C504.6,75.6,505.2,74,505.2,71.4z"/>
		<path fill="#0062D8" d="M475.3,25.1v19h22c2.2,0,3.9,1.4,3.9,4.4c0,0.9-0.2,1.7-0.4,2.3c1.1-1,1.8-2.6,1.8-5.1
			c0-4.8-2.2-6.4-5.6-6.4h-14.7V25.5c0-2.3,0.9-3.1,3.1-3.1h14.2c1.6,0,2.7-1,2.7-3.3s-1.1-3.4-2.7-3.4h-15.4
			C478.8,15.7,475.3,18.5,475.3,25.1z"/>
	</g>
</g>
<g>
	<path fill="#0062D8" d="M30.6,88.6h14.6V90H32.1v8.3h11.7v1.4H32.1v9.5h-1.5V88.6z"/>
	<path fill="#0062D8" d="M111.2,88.6h0.4l9.9,20.6h-1.7l-2.1-4.3h-12.6l-2.1,4.3h-1.7L111.2,88.6z M111.5,91.7h-0.2l-5.2,11.4
		l-0.2,0.4H117l-0.2-0.4L111.5,91.7z"/>
	<path fill="#0062D8" d="M197.3,106.9c0,0-2.3,2.7-7,2.7c-6.2,0-10.7-4.7-10.7-10.7c0-6.1,4.4-10.8,10.7-10.8c4.7,0,7,2.7,7,2.7
		l-0.9,1.1c0,0-2.2-2.4-6.2-2.4c-5.4,0-9.1,4.3-9.1,9.4c0,5,3.7,9.3,9.1,9.3c4,0,6.2-2.5,6.2-2.5L197.3,106.9z"/>
	<path fill="#0062D8" d="M255.7,88.6h16.5V90h-7.5v19.2h-1.5V90h-7.5V88.6z"/>
	<path fill="#0062D8" d="M330.3,99c0-6.1,4.1-10.8,10.5-10.8s10.5,4.7,10.5,10.8c0,6-4.2,10.7-10.5,10.7S330.3,105,330.3,99z
		 M349.8,99c0-5.1-3.3-9.4-9-9.4c-5.7,0-9,4.3-9,9.4c0,5,3.3,9.3,9,9.3C346.5,108.2,349.8,104,349.8,99z"/>
	<path fill="#0062D8" d="M412.9,88.6h8c5.1,0,8.1,2.3,8.1,6.8c0,3.6-2.1,5.7-5.3,6.4v0.1l5.7,6.9v0.4h-1.6l-6-7.2h-7.4v7.2h-1.5
		V88.6z M420.9,90h-6.4v10.6h6.9c3.5,0,6.1-1.6,6.1-5.2C427.4,91.7,424.8,90,420.9,90z"/>
	<path fill="#0062D8" d="M503.3,88.6h1.7l-8.1,12.7v7.9h-1.5v-7.9l-8.1-12.7h1.8l6.4,10.2l0.5,1h0.2l0.5-1L503.3,88.6z"/>
</g>
</svg>
