<?xml version="1.0" encoding="utf-8"?>
<!-- Generator: Adobe Illustrator 22.0.1, SVG Export Plug-In . SVG Version: 6.00 Build 0)  -->
<svg version="1.2" baseProfile="tiny" xmlns="http://www.w3.org/2000/svg" xmlns:xlink="http://www.w3.org/1999/xlink" x="0px"
	 y="0px" viewBox="0 0 800 70" xml:space="preserve">
<g id="Calque_1">
	<rect y="0.1" fill="#007EE5" width="800" height="70"/>
</g>
<g id="Calque_2">
	<g>
		<path fill="#FFFFFF" d="M307.2,41.9V21.8c0-4.3-1.8-6.5-4.7-6.5c-2.5,0-3.7,1.6-4.2,3.2c0.5-0.5,1.2-0.7,2.1-0.7
			c1.9,0,3.2,1.4,3.2,4v20.1c0,0.9,0.6,1.4,1.8,1.4C306.7,43.3,307.2,42.9,307.2,41.9L307.2,41.9z"/>
		<path fill="#FFFFFF" d="M292.9,41.9V21.8c0-4.3-1.8-6.5-4.7-6.5c-2.5,0-3.7,1.6-4.2,3.2c0.5-0.5,1.2-0.7,2.1-0.7
			c1.9,0,3.2,1.4,3.2,4v20.1c0,0.9,0.6,1.4,1.8,1.4C292.4,43.3,292.9,42.9,292.9,41.9L292.9,41.9z"/>
		<path fill="#FFFFFF" d="M278.6,41.9V21.8c0-5.7,2.1-9.2,5.6-10.6c-5.4,0.6-9.2,4.5-9.2,10.6v20.1c0,0.9,0.6,1.4,1.8,1.4
			S278.6,42.9,278.6,41.9L278.6,41.9z"/>
		<path fill="#FFFFFF" d="M321.4,41.9V13.7c0-0.9,0.7-1.8,2.3-1.8c0.4,0,0.7,0,1.1,0.2c-0.7-0.6-1.8-0.9-3.1-0.9
			c-3,0-3.9,1.4-3.9,3.2v27.5c0,0.9,0.6,1.4,1.8,1.4C320.8,43.3,321.4,42.9,321.4,41.9L321.4,41.9z"/>
		<path fill="#FFFFFF" d="M349.6,40.8h-12.4c-1.2,0-1.6-0.4-1.6-1.6V13.7c0-0.9,0.6-1.8,2.3-1.8c0.4,0,0.7,0,1.1,0.2
			c-0.7-0.6-1.8-0.9-3.1-0.9c-3,0-3.9,1.4-3.9,3.2v24.9c0,3.5,1.9,5,4.6,5h13.1c0.8,0,1.4-0.5,1.4-1.8
			C351,41.3,350.4,40.8,349.6,40.8L349.6,40.8z"/>
		<path fill="#FFFFFF" d="M374.4,41.9v-1.4c0-4.8-1.5-8.5-4.2-10.9l-2.9,1.8c2.4,2.3,3.5,5.3,3.5,9.1v1.4c0,0.9,0.6,1.4,1.8,1.4
			C373.9,43.3,374.4,42.9,374.4,41.9L374.4,41.9z"/>
		<path fill="#FFFFFF" d="M359.5,41.9V31.7c0-0.8,0.3-1.1,0.9-1.4l6.8-4.1c4.5-2.7,6.3-6.3,6.3-10.7v-1.8c0-0.9,0.7-1.8,2.3-1.8
			c0.4,0,0.7,0,1.1,0.2c-0.7-0.6-1.8-0.9-3.1-0.9c-3,0-3.9,1.4-3.9,3.2v0.9c0,3.6-1.2,6.4-5,8.6l-4.6,2.6c-0.3,0.2-0.6,0.4-0.7,0.6
			V13.7c0-0.9,0.6-1.8,2.3-1.8c0.4,0,0.7,0,1.1,0.2c-0.7-0.6-1.8-0.9-3.1-0.9c-3,0-3.9,1.4-3.9,3.2v27.5c0,0.9,0.6,1.4,1.8,1.4
			C359,43.3,359.5,42.9,359.5,41.9L359.5,41.9z"/>
		<path fill="#FFFFFF" d="M395.1,41.9v-7.6c5.2-0.7,8-4.8,8-10.4V13.7c0-0.9,0.7-1.8,2.3-1.8c0.4,0,0.7,0,1.1,0.2
			c-0.7-0.6-1.8-0.9-3.1-0.9c-3,0-3.9,1.4-3.9,3.2v9.1c0,5.7-3,7.5-6.2,7.5c-3.2,0-6.2-1.8-6.2-7.5v-9.8c0-0.9,0.7-1.8,2.3-1.8
			c0.4,0,0.7,0,1.1,0.2c-0.7-0.6-1.8-0.9-3.1-0.9c-3,0-3.9,1.4-3.9,3.2v9.5c0,5.6,2.8,9.7,8,10.4v7.6c0,0.9,0.6,1.4,1.8,1.4
			C394.6,43.3,395.1,42.9,395.1,41.9L395.1,41.9z"/>
		<path fill="#FFFFFF" d="M433.4,40.8h-4.1c-1.2,0-1.6-0.4-1.6-1.6v-8.4h7.1c3,0,4.6,1.9,4.6,4.8C439.4,38.9,437.2,40.8,433.4,40.8
			L433.4,40.8z M442.9,35.9c0-3.3-1-6-4.6-7.3c2.7-1.4,3.9-3.6,3.9-6.5c0-3.9-2.6-6.3-6.2-6.3h-2.4c-0.6,0-0.9,0.3-0.9,0.9v1.6h2.6
			c2.2,0,3.5,1,3.5,4.2c0,2.8-1.9,4.7-5,4.7h-6V16.5c0-2.6,1-4.3,2.5-4.9c-1.5,0.2-3.5,0.8-4.5,1.7c-1.1,0.9-1.6,2-1.6,3.6v22.4
			c0,3.5,1.9,5,4.6,5h4.5C439.8,44.3,442.9,40.2,442.9,35.9L442.9,35.9z"/>
		<path fill="#FFFFFF" d="M469.5,40.8h-12.4c-1.2,0-1.6-0.4-1.6-1.6V13.7c0-0.9,0.6-1.8,2.3-1.8c0.4,0,0.7,0,1.1,0.2
			c-0.7-0.6-1.8-0.9-3.1-0.9c-3,0-3.9,1.4-3.9,3.2v24.9c0,3.5,1.9,5,4.6,5h13.1c0.8,0,1.4-0.5,1.4-1.8
			C471,41.3,470.4,40.8,469.5,40.8L469.5,40.8z"/>
		<path fill="#FFFFFF" d="M494.4,34.3V13.7c0-0.9,0.6-1.8,2.3-1.8c0.4,0,0.7,0,1.1,0.2c-0.7-0.6-1.8-0.9-3.1-0.9
			c-3,0-3.9,1.4-3.9,3.2v19.4c0,5.7-2.8,7.5-6,7.5c-3.2,0-6-1.8-6-7.5V13.7c0-0.9,0.6-1.8,2.3-1.8c0.4,0,0.7,0,1.1,0.2
			c-0.7-0.6-1.8-0.9-3.1-0.9c-3,0-3.9,1.4-3.9,3.2v19.9c0,6.2,3.2,10.6,9.6,10.6C491.2,44.8,494.4,40.5,494.4,34.3L494.4,34.3z"/>
		<path fill="#FFFFFF" d="M521.7,15.8h-7.6c-0.6,0-0.9,0.3-0.9,0.9v1.6h8.3c1.8,0,3-0.8,3-3.3c0-1.3-0.3-2.2-0.9-2.7
			c0.1,0.3,0.2,0.7,0.2,1.2C523.8,15.1,522.9,15.8,521.7,15.8L521.7,15.8z"/>
		<path fill="#FFFFFF" d="M521.9,40.8h-12c-1.2,0-1.6-0.4-1.6-1.6v-8.4h12.2c0.8,0,1.4-0.5,1.4-1.8c0-1.3-0.6-1.8-1.4-1.8h-12.2
			V16.5c0-2.6,1-4.3,2.5-4.9c-1.5,0.2-3.5,0.8-4.5,1.7c-1.1,0.9-1.6,2-1.6,3.6v22.4c0,3.5,1.9,5,4.6,5h12.6c0.8,0,1.4-0.5,1.4-1.8
			C523.3,41.3,522.7,40.8,521.9,40.8L521.9,40.8z"/>
		<path fill="#FFFFFF" d="M302.6,11.1c-2.7,0-5.7,1.4-7.2,4.1c-1.5-2.7-4.5-4.1-7.2-4.1c-5.8,0-8.9,4-8.9,10.6v20.5
			c0,0.9-0.6,1.8-2.3,1.8c-0.4,0-0.7,0-1.1-0.2c0.7,0.6,1.8,0.9,3.1,0.9c3,0,3.9-1.4,3.9-3.2V21.8c0-4.7,1.9-7.2,5.3-7.2
			c3.5,0,5.3,2.5,5.3,7.2v20.4c0,0.9-0.6,1.8-2.3,1.8c-0.4,0-0.7,0-1.1-0.2c0.7,0.6,1.8,0.9,3.1,0.9c3,0,3.9-1.4,3.9-3.2V21.8
			c0-4.7,1.9-7.2,5.3-7.2c3.5,0,5.3,2.5,5.3,7.2v20.4c0,0.9-0.6,1.8-2.3,1.8c-0.4,0-0.7,0-1.1-0.2c0.7,0.6,1.8,0.9,3.1,0.9
			c3,0,3.9-1.4,3.9-3.2V21.7C311.5,15.1,308.3,11.1,302.6,11.1L302.6,11.1z"/>
		<path fill="#FFFFFF" d="M323.8,12.6c-1.3,0-1.8,0.5-1.8,1.4v28.2c0,0.9-0.7,1.8-2.3,1.8c-0.4,0-0.7,0-1.1-0.2
			c0.7,0.6,1.8,0.9,3.1,0.9c3,0,3.9-1.4,3.9-3.2V14C325.6,13.1,325.1,12.6,323.8,12.6L323.8,12.6z"/>
		<path fill="#FFFFFF" d="M349.4,37.6h-9.6V14c0-0.9-0.6-1.4-1.8-1.4c-1.3,0-1.8,0.5-1.8,1.4v25.2c0,0.6,0.3,0.9,0.9,0.9h12.5
			c1.2,0,2,0.7,2,2.3c0,0.5-0.1,0.9-0.2,1.2c0.6-0.5,0.9-1.3,0.9-2.7C352.3,38.4,351.2,37.6,349.4,37.6L349.4,37.6z"/>
		<path fill="#FFFFFF" d="M377.8,15.2V14c0-0.9-0.6-1.4-1.8-1.4c-1.3,0-1.8,0.5-1.8,1.4v1.6c0,4.7-1.9,8.3-6.6,11.1l-6.8,4.2
			c-0.4,0.3-0.5,0.5-0.5,1v10.3c0,0.9-0.6,1.8-2.3,1.8c-0.4,0-0.7,0-1.1-0.2c0.7,0.6,1.8,0.9,3.1,0.9c3,0,3.9-1.4,3.9-3.2v-8.1
			c0-0.3,0.3-0.7,0.9-1l5.7-3.6c3.2,3.2,4.7,6.7,4.7,11.8v1.7c0,0.9-0.6,1.8-2.3,1.8c-0.4,0-0.7,0-1.1-0.2c0.7,0.6,1.8,0.9,3.1,0.9
			c3,0,3.9-1.4,3.9-3.2v-1.1c0-6-2-10.4-5.7-13.8C376.4,23.5,377.8,19.7,377.8,15.2L377.8,15.2z"/>
		<path fill="#FFFFFF" d="M360.2,14v11.9l3.6-2V14c0-0.9-0.6-1.4-1.8-1.4C360.7,12.6,360.2,13.1,360.2,14L360.2,14z"/>
		<path fill="#FFFFFF" d="M387.8,14v9.6c0,4.6,2.4,6.8,5.6,6.8c2.7,0,4.5-1.5,5.1-3.6c-0.7,0.7-2,1.2-3.2,1.2
			c-2.4,0-3.9-1.5-3.9-4.4V14c0-0.9-0.6-1.4-1.8-1.4C388.3,12.6,387.8,13.1,387.8,14L387.8,14z"/>
		<path fill="#FFFFFF" d="M405.6,12.6c-1.3,0-1.8,0.5-1.8,1.4v10.1c0,5.6-2.8,9.7-8,10.7v7.4c0,0.9-0.6,1.8-2.3,1.8
			c-0.4,0-0.7,0-1.1-0.2c0.7,0.6,1.8,0.9,3.1,0.9c3,0,3.9-1.4,3.9-3.2V34c4.6-1.2,8-5,8-10.1V14C407.4,13.1,406.9,12.6,405.6,12.6
			L405.6,12.6z"/>
		<path fill="#FFFFFF" d="M442.6,27.3c2.4-1.5,3.7-3.9,3.7-6.8c0-4.9-3.7-8.8-9.6-8.8h-3.8c-2.7,0-4.6,1.5-4.6,5v10h5.4
			c2.4,0,4-1.4,4.3-3.4c-0.6,0.7-1.3,0.9-2.3,0.9H432v-7.3c0-1.2,0.5-1.6,1.6-1.6h2.3c3.9,0,7,2.4,7,6.9c0,3-1.2,5.1-3.3,6.4
			c3,1.5,4,4,4,7.4c0,4.4-2.8,7.3-6.2,8.4c5.7,0,9.7-4.1,9.7-9.4C447,31.3,445.3,28.7,442.6,27.3L442.6,27.3z"/>
		<path fill="#FFFFFF" d="M432,37.6v-6.2h-3.6v7.8c0,0.6,0.3,0.9,0.9,0.9h4.3c2.6,0,4.4-1.1,5.2-3.2c-0.6,0.5-1.3,0.7-2.1,0.7H432
			L432,37.6z"/>
		<path fill="#FFFFFF" d="M469.4,37.6h-9.6V14c0-0.9-0.6-1.4-1.8-1.4s-1.8,0.5-1.8,1.4v25.2c0,0.6,0.3,0.9,0.9,0.9h12.5
			c1.2,0,2,0.7,2,2.3c0,0.5-0.1,0.9-0.2,1.2c0.6-0.5,0.9-1.3,0.9-2.7C472.3,38.4,471.2,37.6,469.4,37.6L469.4,37.6z"/>
		<path fill="#FFFFFF" d="M479.5,14v19.9c0,4.6,2.2,6.8,5.3,6.8c2.7,0,4.3-1.5,4.9-3.6c-0.7,0.7-1.8,1.2-3,1.2
			c-2.4,0-3.6-1.5-3.6-4.4V14c0-0.9-0.6-1.4-1.8-1.4S479.5,13.1,479.5,14L479.5,14z"/>
		<path fill="#FFFFFF" d="M496.9,12.6c-1.3,0-1.8,0.5-1.8,1.4v20.4c0,5.9-2.9,9.2-6.1,10.3c5.8-1,9.7-4.8,9.7-10.5V14
			C498.7,13.1,498.1,12.6,496.9,12.6L496.9,12.6z"/>
		<path fill="#FFFFFF" d="M524.7,41c0-2.6-1.2-3.3-3-3.3h-9.1v-6.2H509v7.8c0,0.6,0.3,0.9,0.9,0.9h12.1c1.2,0,2,0.7,2,2.3
			c0,0.5-0.1,0.9-0.2,1.2C524.4,43.1,524.7,42.3,524.7,41L524.7,41z"/>
		<path fill="#FFFFFF" d="M509,16.6v10h11.6c1.2,0,2,0.7,2,2.3c0,0.5-0.1,0.9-0.2,1.2c0.6-0.5,0.9-1.3,0.9-2.7c0-2.6-1.2-3.3-3-3.3
			h-7.7v-7.3c0-1.2,0.5-1.6,1.6-1.6h7.5c0.8,0,1.4-0.5,1.4-1.8s-0.6-1.8-1.4-1.8h-8.1C510.8,11.6,509,13.1,509,16.6L509,16.6z"/>
		<polygon fill="#FFFFFF" points="275,50 282.7,50 282.7,50.7 275.8,50.7 275.8,55.1 282,55.1 282,55.8 275.8,55.8 275.8,60.8 
			275,60.8 275,50 		"/>
		<path fill="#FFFFFF" d="M317.5,51.6h-0.1l-2.8,6l-0.1,0.2h5.9l-0.1-0.2L317.5,51.6L317.5,51.6z M317.4,50h0.2l5.2,10.8h-0.9
			l-1.1-2.2h-6.6l-1.1,2.2h-0.9L317.4,50L317.4,50z"/>
		<path fill="#FFFFFF" d="M362.7,59.6c0,0-1.2,1.4-3.7,1.4c-3.3,0-5.6-2.5-5.6-5.6c0-3.2,2.3-5.7,5.6-5.7c2.5,0,3.7,1.4,3.7,1.4
			l-0.5,0.6c0,0-1.1-1.3-3.2-1.3c-2.9,0-4.8,2.3-4.8,4.9c0,2.6,1.9,4.9,4.8,4.9c2.1,0,3.2-1.3,3.2-1.3L362.7,59.6L362.7,59.6z"/>
		<polygon fill="#FFFFFF" points="393.4,50 402,50 402,50.7 398.1,50.7 398.1,60.8 397.3,60.8 397.3,50.7 393.4,50.7 393.4,50 		"/>
		<path fill="#FFFFFF" d="M442.9,55.4c0-2.7-1.7-4.9-4.7-4.9c-3,0-4.7,2.3-4.7,4.9c0,2.6,1.7,4.9,4.7,4.9
			C441.2,60.3,442.9,58.1,442.9,55.4L442.9,55.4z M432.7,55.4c0-3.2,2.2-5.7,5.5-5.7c3.4,0,5.5,2.5,5.5,5.7c0,3.2-2.2,5.6-5.5,5.6
			C434.8,61.1,432.7,58.6,432.7,55.4L432.7,55.4z"/>
		<path fill="#FFFFFF" d="M480.3,50.7h-3.4v5.6h3.6c1.8,0,3.2-0.8,3.2-2.7C483.8,51.6,482.4,50.7,480.3,50.7L480.3,50.7z M476.1,50
			h4.2c2.7,0,4.3,1.2,4.3,3.6c0,1.9-1.1,3-2.8,3.4V57l3,3.6v0.2h-0.8l-3.1-3.8h-3.9v3.8h-0.8V50L476.1,50z"/>
		<polygon fill="#FFFFFF" points="523.7,50 524.6,50 520.3,56.7 520.3,60.8 519.5,60.8 519.5,56.7 515.3,50 516.2,50 519.6,55.4 
			519.9,55.9 520,55.9 520.3,55.4 523.7,50 		"/>
	</g>
</g>
</svg>
